<svg xmlns="http://www.w3.org/2000/svg" version="1.1" xmlns:xlink="http://www.w3.org/1999/xlink" viewBox="0 0 200 200"><rect width="200" height="200" fill="url('#gradient')"></rect><defs><linearGradient id="gradient" gradientTransform="rotate(45 0.5 0.5)"><stop offset="0%" stop-color="#000000"></stop><stop offset="100%" stop-color="#000000"></stop></linearGradient></defs><g><g fill="#ffffff" transform="matrix(5.1840890125173855,0,0,5.1840890125173855,6.972185391151186,131.31193254823646)" stroke="#000000" stroke-width="0.2"><path d="M6.10 1.79L5.49 3.52Q1.97 2.53 1.97-1.03L1.97-1.03L1.97-2.96Q1.97-4.93 0.39-4.93L0.39-4.93L0.39-7.15Q1.97-7.15 1.97-9.13L1.97-9.13L1.97-11.18Q2.00-12.94 2.89-14.02Q3.77-15.11 5.49-15.60L5.49-15.60L6.10-13.88Q4.87-13.41 4.82-11.25L4.82-11.25L4.82-9.13Q4.82-6.94 3.02-6.04L3.02-6.04Q4.82-5.15 4.82-2.95L4.82-2.95L4.82-0.84Q4.87 1.32 6.10 1.79L6.10 1.79ZM17.23 0L12.55 0L12.55-14.22L17.13-14.22Q19.01-14.22 20.52-13.36Q22.02-12.51 22.87-10.95Q23.71-9.39 23.72-7.46L23.72-7.46L23.72-6.81Q23.72-4.85 22.90-3.31Q22.07-1.76 20.57-0.88Q19.07-0.01 17.23 0L17.23 0ZM17.13-11.57L15.98-11.57L15.98-2.64L17.17-2.64Q18.64-2.64 19.43-3.69Q20.22-4.74 20.22-6.81L20.22-6.81L20.22-7.42Q20.22-9.48 19.43-10.53Q18.64-11.57 17.13-11.57L17.13-11.57ZM30.40 3.52L29.79 1.79Q31.02 1.32 31.06-0.84L31.06-0.84L31.06-2.96Q31.06-5.16 32.88-6.04L32.88-6.04Q31.06-6.93 31.06-9.13L31.06-9.13L31.06-11.25Q31.02-13.41 29.79-13.88L29.79-13.88L30.40-15.60Q32.15-15.11 33.03-14.00Q33.91-12.89 33.92-11.09L33.92-11.09L33.92-9.13Q33.92-7.15 35.50-7.15L35.50-7.15L35.50-4.93Q33.92-4.93 33.92-2.97L33.92-2.97L33.92-0.89Q33.85 2.55 30.40 3.52L30.40 3.52Z"></path></g></g></svg>